<svg width="39" height="39" viewBox="0 0 39 39" fill="none" xmlns="http://www.w3.org/2000/svg">
<circle cx="19.5" cy="19.5" r="19.5" fill="#F7F8FF"/>
<path d="M9 10H10.74C11.82 10 12.67 10.93 12.58 12L11.75 21.96C11.61 23.59 12.9 24.99 14.54 24.99H25.19C26.63 24.99 27.89 23.81 28 22.38L28.54 14.88C28.66 13.22 27.4 11.87 25.73 11.87H12.82" stroke="#333333" stroke-width="1.5" stroke-miterlimit="10" stroke-linecap="round" stroke-linejoin="round"/>
<path d="M23.25 30C23.9404 30 24.5 29.4404 24.5 28.75C24.5 28.0596 23.9404 27.5 23.25 27.5C22.5596 27.5 22 28.0596 22 28.75C22 29.4404 22.5596 30 23.25 30Z" stroke="#333333" stroke-width="1.5" stroke-miterlimit="10" stroke-linecap="round" stroke-linejoin="round"/>
<path d="M15.25 30C15.9404 30 16.5 29.4404 16.5 28.75C16.5 28.0596 15.9404 27.5 15.25 27.5C14.5596 27.5 14 28.0596 14 28.75C14 29.4404 14.5596 30 15.25 30Z" stroke="#333333" stroke-width="1.5" stroke-miterlimit="10" stroke-linecap="round" stroke-linejoin="round"/>
<path d="M16 16H28" stroke="#333333" stroke-width="1.5" stroke-miterlimit="10" stroke-linecap="round" stroke-linejoin="round"/>
</svg>
