<svg width="39" height="39" viewBox="0 0 39 39" fill="none" xmlns="http://www.w3.org/2000/svg">
<circle cx="19.5" cy="19.5" r="19.5" fill="#F7F8FF"/>
<path d="M8 30H30" stroke="#333333" stroke-width="1.5" stroke-miterlimit="10" stroke-linecap="round" stroke-linejoin="round"/>
<path d="M26.7803 30.0101V25.55" stroke="#333333" stroke-width="1.5" stroke-miterlimit="10" stroke-linecap="round" stroke-linejoin="round"/>
<path d="M26.7996 18.89C25.5796 18.89 24.5996 19.87 24.5996 21.09V23.36C24.5996 24.58 25.5796 25.56 26.7996 25.56C28.0196 25.56 28.9996 24.58 28.9996 23.36V21.09C28.9996 19.87 28.0196 18.89 26.7996 18.89Z" stroke="#333333" stroke-width="1.5" stroke-miterlimit="10" stroke-linecap="round" stroke-linejoin="round"/>
<path d="M9.09961 30V14.03C9.09961 12.02 10.0997 11.01 12.0897 11.01H18.3196C20.3096 11.01 21.2996 12.02 21.2996 14.03V30" stroke="#333333" stroke-width="1.5" stroke-miterlimit="10" stroke-linecap="round" stroke-linejoin="round"/>
<path d="M12.7998 16.25H17.7498" stroke="#333333" stroke-width="1.5" stroke-miterlimit="10" stroke-linecap="round" stroke-linejoin="round"/>
<path d="M12.7998 20H17.7498" stroke="#333333" stroke-width="1.5" stroke-miterlimit="10" stroke-linecap="round" stroke-linejoin="round"/>
<path d="M15.25 30V26.25" stroke="#333333" stroke-width="1.5" stroke-miterlimit="10" stroke-linecap="round" stroke-linejoin="round"/>
</svg>
