<svg width="39" height="39" viewBox="0 0 39 39" fill="none" xmlns="http://www.w3.org/2000/svg">
<circle cx="19.5" cy="19.5" r="19.5" fill="#F7F8FF"/>
<path d="M19.37 10.1501L28.37 13.7501C28.72 13.8901 29 14.3101 29 14.6801V18.0001C29 18.5501 28.55 19.0001 28 19.0001H10C9.45 19.0001 9 18.5501 9 18.0001V14.6801C9 14.3101 9.28 13.8901 9.63 13.7501L18.63 10.1501C18.83 10.0701 19.17 10.0701 19.37 10.1501Z" stroke="#333333" stroke-width="1.5" stroke-miterlimit="10" stroke-linecap="round" stroke-linejoin="round"/>
<path d="M29 30H9V27C9 26.45 9.45 26 10 26H28C28.55 26 29 26.45 29 27V30Z" stroke="#333333" stroke-width="1.5" stroke-miterlimit="10" stroke-linecap="round" stroke-linejoin="round"/>
<path d="M11 26V19" stroke="#333333" stroke-width="1.5" stroke-miterlimit="10" stroke-linecap="round" stroke-linejoin="round"/>
<path d="M15 26V19" stroke="#333333" stroke-width="1.5" stroke-miterlimit="10" stroke-linecap="round" stroke-linejoin="round"/>
<path d="M19 26V19" stroke="#333333" stroke-width="1.5" stroke-miterlimit="10" stroke-linecap="round" stroke-linejoin="round"/>
<path d="M23 26V19" stroke="#333333" stroke-width="1.5" stroke-miterlimit="10" stroke-linecap="round" stroke-linejoin="round"/>
<path d="M27 26V19" stroke="#333333" stroke-width="1.5" stroke-miterlimit="10" stroke-linecap="round" stroke-linejoin="round"/>
<path d="M8 30H30" stroke="#333333" stroke-width="1.5" stroke-miterlimit="10" stroke-linecap="round" stroke-linejoin="round"/>
<path d="M19 16.5C19.8284 16.5 20.5 15.8284 20.5 15C20.5 14.1716 19.8284 13.5 19 13.5C18.1716 13.5 17.5 14.1716 17.5 15C17.5 15.8284 18.1716 16.5 19 16.5Z" stroke="#333333" stroke-width="1.5" stroke-miterlimit="10" stroke-linecap="round" stroke-linejoin="round"/>
</svg>
